# xmcd
#
# Track frame offsets: 
#        150
#        12016
#        26557
#        38247
#        53943
#        65002
#        78376
#        88613
#        104532
#        117981
#        136564
#
# Disc length: 2028 seconds
#
# Revision: 0
# Processed by: cddbd v1.5.2PL0 Copyright (c) Steve Scherf et al.
# Submitted via: ExactAudioCopy v0.95b4
#
DISCID=8807ea0b
DTITLE=Tedd Graves - Homecoming
DYEAR=2007
DGENRE=Gospel
TTITLE0=There's Just the Four of Us
TTITLE1=Jesus, Please Take Your Pen In Hand
TTITLE2=Homecoming at the Hardshell House of Prayer
TTITLE3=The Lighthouse
TTITLE4=The Time is coming Soon
TTITLE5=Stand By Me
TTITLE6=She Wears a Robe of White
TTITLE7=More Than a Tear
TTITLE8=Will The Sun Still Rise Tomorrow
TTITLE9=The Battle
TTITLE10=Colors
EXTD=
EXTT0=
EXTT1=
EXTT2=
EXTT3=
EXTT4=
EXTT5=
EXTT6=
EXTT7=
EXTT8=
EXTT9=
EXTT10=
PLAYORDER=
